<svg width="100" height="78" viewBox="0 0 100 78" fill="none" xmlns="http://www.w3.org/2000/svg">
<path d="M99.9666 32.3799C99.4162 21.8342 89.9788 13.9279 79.4493 13.9279H77.8226C68.6525 13.9279 59.7237 11.0986 52.1734 5.87706C44.8835 0.83486 35.4998 -1.36936 25.5745 0.880128C22.4478 1.58701 -0.0138824 8.04994 6.4382e-06 33.4281C0.00695085 45.7811 6.71525 56.5498 16.6649 62.3319V75.2143C16.6649 76.7534 17.9079 78 19.4426 78H22.2204C23.7551 78 24.9982 76.7534 24.9982 75.2143V65.7671C27.6648 66.4566 30.4495 66.857 33.3315 66.857C34.2759 66.857 35.1856 66.7299 36.1092 66.6516V75.2143C36.1092 76.7534 37.3523 78 38.887 78H41.6647C43.1995 78 44.4425 76.7534 44.4425 75.2143V64.867C46.9147 63.986 49.2828 62.8838 51.4459 61.4701C59.3869 56.2799 68.3782 52.9283 77.8573 52.9283C82.2809 52.9283 80.6368 52.8743 81.859 52.7925L94.7774 76.5479C95.2739 77.4585 96.2183 78 97.2166 78C97.444 78 97.6749 77.9721 97.9023 77.9129C99.1332 77.5995 99.9943 76.487 99.9943 75.2143C99.9943 75.2143 100.019 33.3863 99.9666 32.3799ZM80.55 37.6067C78.2496 37.6067 76.3833 35.735 76.3833 33.4281C76.3833 31.1194 78.2496 29.2495 80.55 29.2495C82.8503 29.2495 84.7166 31.1194 84.7166 33.4281C84.7166 35.735 82.8503 37.6067 80.55 37.6067ZM94.4388 64.2889L87.5187 51.565C90.1437 50.55 92.5065 49.023 94.4388 47.0417V64.2889Z" fill="#95E2B5"/>
</svg>
